<?xml version="1.0" encoding="UTF-8" standalone="no"?>
<!-- Uploaded to: SVG Repo, www.svgrepo.com, Generator: SVG Repo Mixer Tools -->

<svg
   aria-label="Arch Linux"
   role="img"
   viewBox="0 0 512 512"
   version="1.1"
   id="svg6"
   sodipodi:docname="arch linux.svg"
   inkscape:version="1.2.2 (732a01da63, 2022-12-09)"
   xmlns:inkscape="http://www.inkscape.org/namespaces/inkscape"
   xmlns:sodipodi="http://sodipodi.sourceforge.net/DTD/sodipodi-0.dtd"
   xmlns="http://www.w3.org/2000/svg"
   xmlns:svg="http://www.w3.org/2000/svg">
  <defs
     id="defs10" />
  <sodipodi:namedview
     id="namedview8"
     pagecolor="#ffffff"
     bordercolor="#000000"
     borderopacity="0.25"
     inkscape:showpageshadow="2"
     inkscape:pageopacity="0.0"
     inkscape:pagecheckerboard="0"
     inkscape:deskcolor="#d1d1d1"
     showgrid="false"
     inkscape:zoom="0.83496095"
     inkscape:cx="94.016373"
     inkscape:cy="335.34502"
     inkscape:window-width="1920"
     inkscape:window-height="1009"
     inkscape:window-x="-8"
     inkscape:window-y="-8"
     inkscape:window-maximized="1"
     inkscape:current-layer="svg6" />
  <path
     d="M 256,7.5527949 C 234.125,61.900625 220.0625,96.06211 195.0625,148.85714 c 15.625,17.08075 34.375,35.71428 64.0625,55.90062 C 226.3125,192.3354 204.4375,178.36025 188.8125,164.3851 156,231.15528 106,324.32298 6,506 84.125,459.41616 146.625,431.46584 204.4375,420.59626 201.3125,409.72671 199.75,398.85714 199.75,386.43478 v -1.55279 c 1.5625,-51.24224 28.125,-90.06212 59.375,-86.95652 31.25,1.55279 56.25,45.03105 54.6875,96.27328 l -3.125,26.39751 C 366.9375,431.46584 427.875,460.96894 506,504.44721 L 463.8125,426.80745 C 443.5,411.2795 421.625,391.09317 377.875,367.80125 c 29.6875,7.76397 51.5625,17.08074 68.75,26.3975 C 312.25,147.30434 301.3125,114.69566 256,6 Z"
     fill="#1793d1"
     id="path4"
     style="stroke-width:1.55764" />
</svg>
